<svg width="880" height="880" viewBox="0 0 880 880" fill="none" xmlns="http://www.w3.org/2000/svg">
<rect width="880" height="880" fill="#F1F5F9"/>
<path fill-rule="evenodd" clip-rule="evenodd" d="M470.084 156.081C477.097 150.424 485.156 146.203 493.799 143.654C502.467 141.097 511.555 140.271 520.542 141.223C529.529 142.175 538.242 144.886 546.181 149.203C554.121 153.521 561.131 159.362 566.807 166.396L566.845 166.443L751.763 397.517C761.732 409.832 767.123 425.22 766.998 441.068C766.872 456.952 761.212 472.287 751.006 484.457C751.002 484.461 750.999 484.465 750.996 484.469L557.57 715.539C551.104 723.267 543.014 729.474 533.879 733.726C524.815 737.945 514.94 740.137 504.944 740.155C489.089 740.323 473.65 735.017 461.258 725.116L461.072 724.968L460.888 724.816C453.93 719.073 448.172 712.015 443.95 704.043C439.727 696.071 437.123 687.343 436.291 678.36C435.459 669.377 436.416 660.319 439.105 651.707C441.794 643.096 446.161 635.103 451.951 628.185L609.559 440.114L459.724 252.524C454.067 245.553 449.835 237.538 447.274 228.932C444.695 220.269 443.862 211.183 444.822 202.196C445.783 193.21 448.517 184.504 452.865 176.581C457.201 168.681 463.053 161.716 470.084 156.081Z" fill="#64748B"/>
<path fill-rule="evenodd" clip-rule="evenodd" d="M286.582 440.064L134.699 252.147L134.575 251.989C123.185 237.502 118.03 219.085 120.271 200.792C122.513 182.5 131.96 165.871 146.495 154.548C161.028 143.228 179.462 138.13 197.747 140.35C215.989 142.564 232.632 151.887 244.017 166.31L428.512 397.297C438.52 409.517 444 424.818 444 440.621C444 456.517 438.455 471.906 428.334 484.161L428.27 484.239L234.618 715.537C234.616 715.539 234.615 715.541 234.613 715.543C228.145 723.271 220.053 729.477 210.917 733.729C201.798 737.972 191.858 740.166 181.8 740.159C165.789 740.18 150.26 734.625 137.906 724.436L137.9 724.431C130.939 718.688 125.179 711.628 120.954 703.653C116.729 695.678 114.124 686.947 113.291 677.96C112.459 668.974 113.416 659.913 116.106 651.298C118.797 642.683 123.166 634.688 128.96 627.768L286.582 440.064Z" fill="#0F172A"/>
</svg>
